ffmpeg started on 2025-06-19 at 09:40:01
Report written to "D:\Convert\FFMetrics\reports\psnr_report-6.txt"
Log level: 32
Command line:
ffmpeg -hide_banner -nostdin -i "G:\\\xc0\xed\xe8\xec\xe5\\[\xd2\xee\xef-4]\\Fate\\\xc4\xee\xef\xee\xeb\xed\xe5\xed\xe8\xe5 - \xcf\xee\xf1\xeb\xe5\xe4\xed\xe8\xe9 \xe2\xfb\xe7\xee\xe2 \xed\xe0 \xe1\xe8\xf1\\Fate_Extra_Last_Encore_[04]_[AniLibria_TV]_[HDTV-Rip_720p]_HEVC.mkv" -i "G:\\\xc0\xed\xe8\xec\xe5\\[\xd2\xee\xef-4]\\Fate\\\xc4\xee\xef\xee\xeb\xed\xe5\xed\xe8\xe5 - \xcf\xee\xf1\xeb\xe5\xe4\xed\xe8\xe9 \xe2\xfb\xe7\xee\xe2 \xed\xe0 \xe1\xe8\xf1\\Fate_Extra_Last_Encore_[04]_[AniLibria_TV]_[HDTV-Rip_720p].mkv" -lavfi "[0:v]settb=AVTB,setpts=PTS-STARTPTS,format=pix_fmts=yuv420p10,fps=24000/1001,scale=1280:720:flags=bicubic[main];[1:v]settb=AVTB,setpts=PTS-STARTPTS,format=pix_fmts=yuv420p,fps=24000/1001,scale=1280:720:flags=bicubic[ref];[main][ref]psnr=eof_action=endall:stats_file='D\\:/Convert/FFMetrics/logs/psnr_logfile-6.txt'" -f null -
Input #0, matroska,webm, from 'G:\Аниме\[Топ-4]\Fate\Дополнение - Последний вызов на бис\Fate_Extra_Last_Encore_[04]_[AniLibria_TV]_[HDTV-Rip_720p]_HEVC.mkv':
  Metadata:
    ENCODER         : Lavf61.7.100
  Duration: 00:24:00.17, start: -0.021000, bitrate: 1195 kb/s
  Stream #0:0(jpn): Video: hevc (Main 10), yuv420p10le(tv, bt709, progressive), 1280x720 [SAR 1:1 DAR 16:9], 23.81 fps, 23.81 tbr, 1k tbn (default)
      Metadata:
        ENCODER         : Lavc61.19.100 libx265
        BPS             : 997093
        DURATION        : 00:24:00.096000000
        NUMBER_OF_FRAMES: 34527
        NUMBER_OF_BYTES : 179488801
        _STATISTICS_WRITING_APP: mkvpropedit v66.0.0 ('Josie') 64-bit
        _STATISTICS_WRITING_DATE_UTC: 2025-06-17 12:09:26
        _STATISTICS_TAGS: BPS DURATION NUMBER_OF_FRAMES NUMBER_OF_BYTES
  Stream #0:1(rus): Audio: aac (LC), 48000 Hz, stereo, fltp (default)
      Metadata:
        title           : Ados Amikiri Anzen Hekomi Silv
        ENCODER         : Lavc61.19.100 aac
        BPS             : 193907
        DURATION        : 00:24:00.149000000
        NUMBER_OF_FRAMES: 67508
        NUMBER_OF_BYTES : 34906928
        _STATISTICS_WRITING_APP: mkvpropedit v66.0.0 ('Josie') 64-bit
        _STATISTICS_WRITING_DATE_UTC: 2025-06-17 12:09:26
        _STATISTICS_TAGS: BPS DURATION NUMBER_OF_FRAMES NUMBER_OF_BYTES
  Stream #0:2(rus): Subtitle: ass (ssa) (default) (forced)
      Metadata:
        title           : Надписи
        BPS             : 18
        DURATION        : 00:19:45.020000000
        NUMBER_OF_FRAMES: 14
        NUMBER_OF_BYTES : 2756
        _STATISTICS_WRITING_APP: mkvpropedit v66.0.0 ('Josie') 64-bit
        _STATISTICS_WRITING_DATE_UTC: 2025-06-17 12:09:26
        _STATISTICS_TAGS: BPS DURATION NUMBER_OF_FRAMES NUMBER_OF_BYTES
  Stream #0:3(rus): Subtitle: ass (ssa)
      Metadata:
        title           : Полные
        BPS             : 150
        DURATION        : 00:23:31.970000000
        NUMBER_OF_FRAMES: 331
        NUMBER_OF_BYTES : 26501
        _STATISTICS_WRITING_APP: mkvpropedit v66.0.0 ('Josie') 64-bit
        _STATISTICS_WRITING_DATE_UTC: 2025-06-17 12:09:26
        _STATISTICS_TAGS: BPS DURATION NUMBER_OF_FRAMES NUMBER_OF_BYTES
Input #1, matroska,webm, from 'G:\Аниме\[Топ-4]\Fate\Дополнение - Последний вызов на бис\Fate_Extra_Last_Encore_[04]_[AniLibria_TV]_[HDTV-Rip_720p].mkv':
  Metadata:
    encoder         : libebml v1.4.2 + libmatroska v1.6.4
    creation_time   : 2024-12-27T09:57:00.000000Z
  Duration: 00:24:00.15, start: 0.000000, bitrate: 2663 kb/s
  Stream #1:0(jpn): Video: h264 (Main), yuv420p(tv, bt709, progressive), 1280x720, SAR 1:1 DAR 16:9, 23.81 fps, 23.81 tbr, 1k tbn (default)
      Metadata:
        BPS             : 2458213
        DURATION        : 00:24:00.095000000
        NUMBER_OF_FRAMES: 34527
        NUMBER_OF_BYTES : 442507658
        _STATISTICS_WRITING_APP: mkvmerge v66.0.0 ('Josie') 64-bit
        _STATISTICS_WRITING_DATE_UTC: 2024-12-27 09:57:00
        _STATISTICS_TAGS: BPS DURATION NUMBER_OF_FRAMES NUMBER_OF_BYTES
  Stream #1:1(rus): Audio: aac (LC), 48000 Hz, stereo, fltp (default)
      Metadata:
        title           : Ados Amikiri Anzen Hekomi Silv
        BPS             : 192092
        DURATION        : 00:24:00.149000000
        NUMBER_OF_FRAMES: 67507
        NUMBER_OF_BYTES : 34580157
        _STATISTICS_WRITING_APP: mkvmerge v66.0.0 ('Josie') 64-bit
        _STATISTICS_WRITING_DATE_UTC: 2024-12-27 09:57:00
        _STATISTICS_TAGS: BPS DURATION NUMBER_OF_FRAMES NUMBER_OF_BYTES
  Stream #1:2(rus): Subtitle: ass (ssa) (default) (forced)
      Metadata:
        title           : Надписи
        BPS             : 18
        DURATION        : 00:19:45.020000000
        NUMBER_OF_FRAMES: 14
        NUMBER_OF_BYTES : 2756
        _STATISTICS_WRITING_APP: mkvmerge v66.0.0 ('Josie') 64-bit
        _STATISTICS_WRITING_DATE_UTC: 2024-12-27 09:57:00
        _STATISTICS_TAGS: BPS DURATION NUMBER_OF_FRAMES NUMBER_OF_BYTES
  Stream #1:3(rus): Subtitle: ass (ssa)
      Metadata:
        title           : Полные
        BPS             : 150
        DURATION        : 00:23:31.970000000
        NUMBER_OF_FRAMES: 331
        NUMBER_OF_BYTES : 26501
        _STATISTICS_WRITING_APP: mkvmerge v66.0.0 ('Josie') 64-bit
        _STATISTICS_WRITING_DATE_UTC: 2024-12-27 09:57:00
        _STATISTICS_TAGS: BPS DURATION NUMBER_OF_FRAMES NUMBER_OF_BYTES
  Stream #1:4: Attachment: ttf
      Metadata:
        filename        : KozGoPr6N-Medium_0.otf
        mimetype        : application/x-truetype-font
  Stream #1:5: Attachment: ttf
      Metadata:
        filename        : 9511(1).ttf
        mimetype        : application/x-truetype-font
  Stream #1:6: Attachment: ttf
      Metadata:
        filename        : arx.ttf
        mimetype        : application/x-truetype-font
  Stream #1:7: Attachment: ttf
      Metadata:
        filename        : BwSurcoDEMO-Black.otf
        mimetype        : application/x-truetype-font
  Stream #1:8: Attachment: ttf
      Metadata:
        filename        : BwSurcoDEMO-BlackItalic.otf
        mimetype        : application/x-truetype-font
  Stream #1:9: Attachment: ttf
      Metadata:
        filename        : BwSurcoDEMO-Bold.otf
        mimetype        : application/x-truetype-font
  Stream #1:10: Attachment: ttf
      Metadata:
        filename        : BwSurcoDEMO-BoldItalic.otf
        mimetype        : application/x-truetype-font
  Stream #1:11: Attachment: ttf
      Metadata:
        filename        : BwSurcoDEMO-Book.otf
        mimetype        : application/x-truetype-font
  Stream #1:12: Attachment: ttf
      Metadata:
        filename        : BwSurcoDEMO-BookItalic.otf
        mimetype        : application/x-truetype-font
  Stream #1:13: Attachment: ttf
      Metadata:
        filename        : BwSurcoDEMO-Light.otf
        mimetype        : application/x-truetype-font
  Stream #1:14: Attachment: ttf
      Metadata:
        filename        : BwSurcoDEMO-LightItalic.otf
        mimetype        : application/x-truetype-font
  Stream #1:15: Attachment: ttf
      Metadata:
        filename        : BwSurcoDEMO-Medium.otf
        mimetype        : application/x-truetype-font
  Stream #1:16: Attachment: ttf
      Metadata:
        filename        : BwSurcoDEMO-MediumItalic.otf
        mimetype        : application/x-truetype-font
  Stream #1:17: Attachment: ttf
      Metadata:
        filename        : BwSurcoDEMO-Regular.otf
        mimetype        : application/x-truetype-font
  Stream #1:18: Attachment: ttf
      Metadata:
        filename        : BwSurcoDEMO-RegularItalic.otf
        mimetype        : application/x-truetype-font
Stream mapping:
  Stream #0:0 (hevc) -> settb:default
  Stream #1:0 (h264) -> settb:default
  psnr:default -> Stream #0:0 (wrapped_avframe)
  Stream #0:1 -> #0:1 (aac (native) -> pcm_s16le (native))
Output #0, null, to 'pipe:':
  Metadata:
    encoder         : Lavf61.7.100
  Stream #0:0: Video: wrapped_avframe, yuv420p10le(tv, bt709, progressive), 1280x720 [SAR 1:1 DAR 16:9], q=2-31, 200 kb/s, 23.98 fps, 23.98 tbn
      Metadata:
        encoder         : Lavc61.19.100 wrapped_avframe
  Stream #0:1(rus): Audio: pcm_s16le, 48000 Hz, stereo, s16, 1536 kb/s (default)
      Metadata:
        title           : Ados Amikiri Anzen Hekomi Silv
        _STATISTICS_TAGS: BPS DURATION NUMBER_OF_FRAMES NUMBER_OF_BYTES
        BPS             : 193907
        DURATION        : 00:24:00.149000000
        NUMBER_OF_FRAMES: 67508
        NUMBER_OF_BYTES : 34906928
        _STATISTICS_WRITING_APP: mkvpropedit v66.0.0 ('Josie') 64-bit
        _STATISTICS_WRITING_DATE_UTC: 2025-06-17 12:09:26
        encoder         : Lavc61.19.100 pcm_s16le
frame=  318 fps=0.0 q=-0.0 size=N/A time=00:00:13.26 bitrate=N/A speed=25.7x    frame=  747 fps=720 q=-0.0 size=N/A time=00:00:31.15 bitrate=N/A speed=  30x    frame= 1189 fps=769 q=-0.0 size=N/A time=00:00:49.59 bitrate=N/A speed=32.1x    frame= 1769 fps=855 q=-0.0 size=N/A time=00:01:13.78 bitrate=N/A speed=35.7x    frame= 2296 fps=891 q=-0.0 size=N/A time=00:01:35.76 bitrate=N/A speed=37.2x    frame= 2550 fps=823 q=-0.0 size=N/A time=00:01:46.35 bitrate=N/A speed=34.3x    frame= 2771 fps=766 q=-0.0 size=N/A time=00:01:55.57 bitrate=N/A speed=31.9x    frame= 3020 fps=732 q=-0.0 size=N/A time=00:02:05.95 bitrate=N/A speed=30.5x    frame= 3252 fps=700 q=-0.0 size=N/A time=00:02:15.63 bitrate=N/A speed=29.2x    frame= 3470 fps=673 q=-0.0 size=N/A time=00:02:24.72 bitrate=N/A speed=28.1x    frame= 3626 fps=639 q=-0.0 size=N/A time=00:02:31.23 bitrate=N/A speed=26.6x    frame= 3793 fps=612 q=-0.0 size=N/A time=00:02:38.19 bitrate=N/A speed=25.5x    frame= 3975 fps=593 q=-0.0 size=N/A time=00:02:45.79 bitrate=N/A speed=24.7x    frame= 4191 fps=580 q=-0.0 size=N/A time=00:02:54.79 bitrate=N/A speed=24.2x    frame= 4668 fps=603 q=-0.0 size=N/A time=00:03:14.69 bitrate=N/A speed=25.2x    frame= 5102 fps=618 q=-0.0 size=N/A time=00:03:32.79 bitrate=N/A speed=25.8x    frame= 5533 fps=631 q=-0.0 size=N/A time=00:03:50.77 bitrate=N/A speed=26.3x    frame= 6020 fps=648 q=-0.0 size=N/A time=00:04:11.08 bitrate=N/A speed=  27x    frame= 6562 fps=669 q=-0.0 size=N/A time=00:04:33.69 bitrate=N/A speed=27.9x    frame= 7078 fps=686 q=-0.0 size=N/A time=00:04:55.21 bitrate=N/A speed=28.6x    frame= 7564 fps=698 q=-0.0 size=N/A time=00:05:15.48 bitrate=N/A speed=29.1x    frame= 8012 fps=706 q=-0.0 size=N/A time=00:05:34.16 bitrate=N/A speed=29.5x    frame= 8567 fps=722 q=-0.0 size=N/A time=00:05:57.31 bitrate=N/A speed=30.1x    frame= 9012 fps=728 q=-0.0 size=N/A time=00:06:15.87 bitrate=N/A speed=30.3x    frame= 9480 fps=735 q=-0.0 size=N/A time=00:06:35.39 bitrate=N/A speed=30.7x    frame=10006 fps=746 q=-0.0 size=N/A time=00:06:57.33 bitrate=N/A speed=31.1x    frame=10439 fps=750 q=-0.0 size=N/A time=00:07:15.39 bitrate=N/A speed=31.3x    frame=10884 fps=754 q=-0.0 size=N/A time=00:07:33.95 bitrate=N/A speed=31.4x    frame=11183 fps=747 q=-0.0 size=N/A time=00:07:46.42 bitrate=N/A speed=31.2x    frame=11540 fps=746 q=-0.0 size=N/A time=00:08:01.31 bitrate=N/A speed=31.1x    frame=11910 fps=745 q=-0.0 size=N/A time=00:08:16.74 bitrate=N/A speed=31.1x    frame=12303 fps=746 q=-0.0 size=N/A time=00:08:33.13 bitrate=N/A speed=31.1x    frame=12797 fps=752 q=-0.0 size=N/A time=00:08:53.74 bitrate=N/A speed=31.3x    frame=13248 fps=756 q=-0.0 size=N/A time=00:09:12.55 bitrate=N/A speed=31.5x    frame=13756 fps=762 q=-0.0 size=N/A time=00:09:33.73 bitrate=N/A speed=31.8x    frame=14158 fps=763 q=-0.0 size=N/A time=00:09:50.50 bitrate=N/A speed=31.8x    frame=14550 fps=762 q=-0.0 size=N/A time=00:10:06.85 bitrate=N/A speed=31.8x    frame=14924 fps=762 q=-0.0 size=N/A time=00:10:22.45 bitrate=N/A speed=31.8x    frame=15350 fps=763 q=-0.0 size=N/A time=00:10:40.22 bitrate=N/A speed=31.8x    frame=15598 fps=756 q=-0.0 size=N/A time=00:10:50.56 bitrate=N/A speed=31.5x    frame=15977 fps=756 q=-0.0 size=N/A time=00:11:06.37 bitrate=N/A speed=31.5x    frame=16298 fps=752 q=-0.0 size=N/A time=00:11:19.76 bitrate=N/A speed=31.4x    frame=16625 fps=750 q=-0.0 size=N/A time=00:11:33.40 bitrate=N/A speed=31.3x    frame=17002 fps=749 q=-0.0 size=N/A time=00:11:49.12 bitrate=N/A speed=31.3x    frame=17464 fps=752 q=-0.0 size=N/A time=00:12:08.39 bitrate=N/A speed=31.4x    frame=17888 fps=754 q=-0.0 size=N/A time=00:12:26.07 bitrate=N/A speed=31.5x    frame=18400 fps=759 q=-0.0 size=N/A time=00:12:47.43 bitrate=N/A speed=31.7x    frame=18984 fps=767 q=-0.0 size=N/A time=00:13:11.79 bitrate=N/A speed=  32x    frame=19559 fps=774 q=-0.0 size=N/A time=00:13:35.77 bitrate=N/A speed=32.3x    frame=20106 fps=780 q=-0.0 size=N/A time=00:13:58.58 bitrate=N/A speed=32.5x    frame=20660 fps=786 q=-0.0 size=N/A time=00:14:21.69 bitrate=N/A speed=32.8x    frame=21243 fps=792 q=-0.0 size=N/A time=00:14:46.01 bitrate=N/A speed=  33x    frame=21777 fps=797 q=-0.0 size=N/A time=00:15:08.28 bitrate=N/A speed=33.2x    frame=22347 fps=803 q=-0.0 size=N/A time=00:15:32.05 bitrate=N/A speed=33.5x    frame=22888 fps=807 q=-0.0 size=N/A time=00:15:54.62 bitrate=N/A speed=33.6x    frame=23364 fps=809 q=-0.0 size=N/A time=00:16:14.47 bitrate=N/A speed=33.7x    frame=23931 fps=814 q=-0.0 size=N/A time=00:16:38.12 bitrate=N/A speed=33.9x    frame=24425 fps=817 q=-0.0 size=N/A time=00:16:58.72 bitrate=N/A speed=34.1x    frame=24930 fps=819 q=-0.0 size=N/A time=00:17:19.78 bitrate=N/A speed=34.2x    frame=25408 fps=821 q=-0.0 size=N/A time=00:17:39.72 bitrate=N/A speed=34.2x    frame=25885 fps=823 q=-0.0 size=N/A time=00:17:59.62 bitrate=N/A speed=34.3x    frame=26453 fps=827 q=-0.0 size=N/A time=00:18:23.31 bitrate=N/A speed=34.5x    frame=27033 fps=832 q=-0.0 size=N/A time=00:18:47.50 bitrate=N/A speed=34.7x    frame=27560 fps=835 q=-0.0 size=N/A time=00:19:09.48 bitrate=N/A speed=34.8x    frame=27920 fps=833 q=-0.0 size=N/A time=00:19:24.49 bitrate=N/A speed=34.7x    frame=28275 fps=831 q=-0.0 size=N/A time=00:19:39.30 bitrate=N/A speed=34.6x    frame=28657 fps=830 q=-0.0 size=N/A time=00:19:55.23 bitrate=N/A speed=34.6x    frame=29019 fps=828 q=-0.0 size=N/A time=00:20:10.33 bitrate=N/A speed=34.5x    frame=29422 fps=827 q=-0.0 size=N/A time=00:20:27.14 bitrate=N/A speed=34.5x    frame=29787 fps=825 q=-0.0 size=N/A time=00:20:42.36 bitrate=N/A speed=34.4x    frame=30190 fps=824 q=-0.0 size=N/A time=00:20:59.17 bitrate=N/A speed=34.4x    frame=30521 fps=822 q=-0.0 size=N/A time=00:21:12.98 bitrate=N/A speed=34.3x    frame=30847 fps=819 q=-0.0 size=N/A time=00:21:26.57 bitrate=N/A speed=34.2x    frame=31120 fps=815 q=-0.0 size=N/A time=00:21:37.96 bitrate=N/A speed=  34x    frame=31383 fps=811 q=-0.0 size=N/A time=00:21:48.93 bitrate=N/A speed=33.8x    frame=31644 fps=807 q=-0.0 size=N/A time=00:21:59.81 bitrate=N/A speed=33.7x    frame=31950 fps=805 q=-0.0 size=N/A time=00:22:12.58 bitrate=N/A speed=33.6x    frame=32207 fps=801 q=-0.0 size=N/A time=00:22:23.30 bitrate=N/A speed=33.4x    frame=32511 fps=798 q=-0.0 size=N/A time=00:22:35.97 bitrate=N/A speed=33.3x    frame=32916 fps=798 q=-0.0 size=N/A time=00:22:52.87 bitrate=N/A speed=33.3x    frame=33498 fps=802 q=-0.0 size=N/A time=00:23:17.14 bitrate=N/A speed=33.4x    frame=34044 fps=805 q=-0.0 size=N/A time=00:23:39.91 bitrate=N/A speed=33.6x    [Parsed_psnr_10 @ 0000028286062800] PSNR y:36.230649 u:45.962870 v:44.877251 average:37.735508 min:7.475524 max:60.555146
[out#0/null @ 00000282851d6440] video:14836KiB audio:270032KiB subtitle:0KiB other streams:0KiB global headers:0KiB muxing overhead: unknown
frame=34528 fps=809 q=-0.0 Lsize=N/A time=00:24:00.10 bitrate=N/A speed=33.7x    
